# xmcd
#
# Track frame offsets:
#	150
#	16204
#	34182
#	46388
#	66701
#	85124
#	105618
#	119994
#	135026
#	170891
#	193636
#	217988
#	235914
#
# Disc length: 3975 seconds
#
# Revision: 0
# Processed by: cddbd v1.5PL3 Copyright (c) Steve Scherf et al.
# Submitted via: dBpowerAMP V4.0
#
DISCID=b90f850d
DTITLE=Rivertrain - Eleven
DYEAR=2003
DGENRE=Americana
TTITLE0=Doin' O.K.
TTITLE1=Black Or White
TTITLE2=Better Things
TTITLE3=Cold Winter
TTITLE4=BBQ And Margaritas
TTITLE5=All I Wanted
TTITLE6=The Lights
TTITLE7=Take Me Away
TTITLE8=What About Me
TTITLE9=On My Way
TTITLE10=Last Drop
TTITLE11=Wicked
TTITLE12=December/Gimme Some Money
EXTD=This is a fantastic album with a Number One Single ("Better Things") on the Americana Billboard charts...cool guys, too.  The band is no longer named "Rivertrain", and is now named "River Train", as co-founding member Jerry Martin is no longer with
EXTD=the band, and there were legal issues.  Enjoy this great music!\n\n   -  Jason M.
EXTT0=
EXTT1=
EXTT2=
EXTT3=
EXTT4=
EXTT5=
EXTT6=
EXTT7=
EXTT8=
EXTT9=
EXTT10=
EXTT11=
EXTT12=
PLAYORDER=
